<svg height="488pt" viewBox="-13 0 488 488" width="488pt" xmlns="http://www.w3.org/2000/svg"><path d="m67 344 88.886719 100h216.890625c7.851562 0 14.21875-7.164062 14.21875-16v-408c0-8.835938-6.367188-16-14.21875-16h-291.554688c-7.855468 0-14.222656 7.164062-14.222656 16zm0 0" fill="#e0ebfc"/><path d="m67 344h78.222656c5.890625 0 10.664063 5.371094 10.664063 12v88zm0 0" fill="#a4c9ff"/><path d="m372.777344 448h-216.890625c-1.140625 0-2.230469-.488281-2.988281-1.34375l-88.886719-100c-.652344-.730469-1.011719-1.675781-1.011719-2.65625v-324c0-11.027344 8.175781-20 18.222656-20h291.554688c10.046875 0 18.222656 8.972656 18.222656 20v408c0 11.027344-8.175781 20-18.222656 20zm-215.09375-8h215.09375c5.632812 0 10.21875-5.382812 10.21875-12v-408c0-6.617188-4.585938-12-10.21875-12h-291.554688c-5.636718 0-10.222656 5.382812-10.222656 12v322.480469zm0 0" fill="#3762cc"/><path d="m155.890625 448c-1.121094 0-2.214844-.472656-2.992187-1.34375l-88.886719-100c-1.046875-1.175781-1.304688-2.859375-.660157-4.292969.644532-1.4375 2.074219-2.363281 3.648438-2.363281h78.222656c8.085938 0 14.664063 7.179688 14.664063 16v88c0 1.660156-1.023438 3.148438-2.578125 3.738281-.460938.175781-.941406.261719-1.417969.261719zm-79.984375-100 75.984375 85.480469v-77.480469c0-4.410156-2.992187-8-6.667969-8zm0 0" fill="#3762cc"/><g fill="#b9befc"><path d="m304 63.664062h-146c-6.628906 0-12-5.371093-12-12 0-6.625 5.371094-12 12-12h146c6.628906 0 12 5.375 12 12 0 6.628907-5.371094 12-12 12zm0 0"/><path d="m298 118h-134c-4.417969 0-8-3.582031-8-8s3.582031-8 8-8h134c4.417969 0 8 3.582031 8 8s-3.582031 8-8 8zm0 0"/><path d="m321.835938 150h-181.671876c-4.417968 0-8-3.582031-8-8s3.582032-8 8-8h181.667969c4.417969 0 8 3.582031 8 8 .003907 4.417969-3.578125 8-7.996093 8zm0 0"/><path d="m321.835938 182h-181.671876c-4.417968 0-8-3.582031-8-8s3.582032-8 8-8h181.667969c4.417969 0 8 3.582031 8 8 .003907 4.417969-3.578125 8-7.996093 8zm0 0"/><path d="m298 234h-134c-4.417969 0-8-3.582031-8-8s3.582031-8 8-8h134c4.417969 0 8 3.582031 8 8s-3.582031 8-8 8zm0 0"/><path d="m321.835938 266h-181.671876c-4.417968 0-8-3.582031-8-8s3.582032-8 8-8h181.667969c4.417969 0 8 3.582031 8 8 .003907 4.417969-3.578125 8-7.996093 8zm0 0"/><path d="m298 298h-134c-4.417969 0-8-3.582031-8-8s3.582031-8 8-8h134c4.417969 0 8 3.582031 8 8s-3.582031 8-8 8zm0 0"/></g><path d="m458 380.300781c0 57.269531-46.429688 103.699219-103.699219 103.699219-57.273437 0-103.699219-46.429688-103.699219-103.699219 0-57.273437 46.425782-103.699219 103.699219-103.699219 57.269531 0 103.699219 46.425782 103.699219 103.699219zm0 0" fill="#6bdddd"/><path d="m438 380.300781c0 46.226563-37.472656 83.699219-83.699219 83.699219-46.226562 0-83.699219-37.472656-83.699219-83.699219 0-46.226562 37.472657-83.699219 83.699219-83.699219 46.226563 0 83.699219 37.472657 83.699219 83.699219zm0 0" fill="#4671c6"/><path d="m397.503906 324.695312c-.382812 0-.773437.042969-1.148437.125l-63.617188 13.75c-2.472656.535157-4.269531 2.761719-4.269531 5.292969v54.34375c-2.003906-.566406-4.164062-.878906-6.441406-.878906-1.460938 0-2.941406.128906-4.40625.386719-5.296875.933594-10.011719 3.457031-13.277344 7.101562-3.40625 3.808594-4.851562 8.378906-4.058594 12.867188 1.371094 7.785156 9.070313 13.222656 18.714844 13.222656 1.460938 0 2.941406-.128906 4.40625-.386719 5.296875-.933593 10.015625-3.457031 13.277344-7.101562 3.042968-3.398438 4.507812-7.402344 4.222656-11.421875.011719-.144532.046875-.285156.046875-.4375v-48.769532l49.472656-10.695312v35.132812c-2-.566406-4.160156-.878906-6.4375-.878906-1.460937 0-2.945312.128906-4.40625.386719-5.296875.9375-10.015625 3.457031-13.277343 7.105469-3.410157 3.804687-4.851563 8.375-4.058594 12.863281 1.371094 7.785156 9.066406 13.222656 18.714844 13.222656 1.460937 0 2.941406-.128906 4.40625-.386719 5.296874-.933593 10.011718-3.457031 13.277343-7.101562 3.078125-3.441406 4.535157-7.503906 4.207031-11.570312.019532-.207032.058594-.402344.058594-.609376v-70.148437c0-2.984375-2.425781-5.414063-5.40625-5.414063zm0 0" fill="#f9a7a7"/><path d="m380.960938 412.535156c-5.902344 0-10.710938-2.992187-11.4375-7.113281-.527344-2.980469 1.207031-5.449219 2.285156-6.652344 2.136718-2.382812 5.433594-4.117187 9.058594-4.753906 1.039062-.1875 2.089843-.277344 3.121093-.277344 5.898438 0 10.710938 2.992188 11.4375 7.117188.777344 4.40625-3.597656 10.039062-11.339843 11.40625-1.042969.179687-2.09375.273437-3.125.273437zm0 0" fill="#ffea92"/><path d="m354.300781 488c-59.386719 0-107.699219-48.3125-107.699219-107.699219s48.3125-107.699219 107.699219-107.699219 107.699219 48.3125 107.699219 107.699219-48.3125 107.699219-107.699219 107.699219zm0-207.398438c-54.976562 0-99.699219 44.722657-99.699219 99.699219 0 54.972657 44.722657 99.699219 99.699219 99.699219 54.972657 0 99.699219-44.726562 99.699219-99.699219 0-54.976562-44.726562-99.699219-99.699219-99.699219zm0 0" fill="#3762cc"/><path d="m36 374.238281h-32v-272.507812c0-4.730469 3.835938-8.566407 8.566406-8.566407h14.863282c4.730468 0 8.566406 3.835938 8.566406 8.566407v272.507812zm0 0" fill="#6bdddd"/><path d="m4 374.238281 11.789062 33.269531c1.574219 4.441407 6.847657 4.441407 8.421876 0l11.789062-33.269531zm0 0" fill="#f9cfcf"/><path d="m4 101.195312v27.855469h32v-27.855469c0-4.4375-4.09375-8.03125-9.140625-8.03125h-13.714844c-5.050781 0-9.144531 3.59375-9.144531 8.03125zm0 0" fill="#f9cfcf"/><path d="m4 129.050781h32v16.0625h-32zm0 0" fill="#f9a7a7"/><path d="m10.484375 392.539062 5.304687 14.96875c1.574219 4.441407 6.847657 4.441407 8.421876 0l5.304687-14.96875zm0 0" fill="#b9befc"/><path d="m36 378.238281h-32c-2.207031 0-4-1.789062-4-4v-272.507812c0-6.929688 5.636719-12.570313 12.566406-12.570313h14.867188c6.929687 0 12.566406 5.640625 12.566406 12.570313v272.507812c0 2.210938-1.792969 4-4 4zm-28-8h24v-268.507812c0-2.519531-2.050781-4.570313-4.566406-4.570313h-14.867188c-2.515625 0-4.566406 2.050782-4.566406 4.570313zm0 0" fill="#3762cc"/><path d="m20 414.835938c-3.554688 0-6.691406-2.355469-7.980469-5.996094l-11.789062-33.265625c-.433594-1.222657-.246094-2.585938.503906-3.644531.75-1.058594 1.96875-1.691407 3.265625-1.691407h32c1.296875 0 2.519531.628907 3.265625 1.691407.75 1.0625.9375 2.421874.503906 3.644531l-11.789062 33.265625c-1.289063 3.644531-4.425781 5.996094-7.980469 5.996094zm-10.339844-36.597657 9.902344 27.933594c.179688.503906.398438.65625.445312.667969.03125-.011719.253907-.164063.433594-.667969l9.898438-27.933594zm0 0" fill="#3762cc"/><path d="m341.796875 355.234375c-2.117187 0-3.839844-1.722656-3.839844-3.84375v-4.816406c0-1.808594 1.234375-3.355469 3.003907-3.75l47.722656-10.667969c.277344-.058594.558594-.09375.839844-.09375 2.117187 0 3.839843 1.726562 3.839843 3.84375v4.816406c0 1.816406-1.234375 3.355469-3.003906 3.753906l-47.722656 10.664063c-.277344.0625-.558594.09375-.839844.09375zm0 0" fill="#ffea92"/><path d="m319.003906 423.515625c-5.902344 0-10.710937-2.992187-11.4375-7.117187-.527344-2.980469 1.207032-5.445313 2.285156-6.652344 2.132813-2.382813 5.433594-4.113282 9.058594-4.753906 1.039063-.183594 2.089844-.277344 3.121094-.277344 5.902344 0 10.710938 2.992187 11.4375 7.117187.414062 2.347657-.589844 4.945313-2.75 7.128907-2.136719 2.160156-5.1875 3.675781-8.59375 4.277343-1.039062.183594-2.09375.277344-3.121094.277344zm0 0" fill="#ffea92"/></svg>